/* XPM */
static char *_2a4e365f30c4ee5a7f5f1ef7a561ed8lIitWhxnFtvQwF87[] = {
/* columns rows colors chars-per-pixel */
"60 60 14 1 ",
"  c black",
". c #242423",
"X c #424341",
"o c #515351",
"O c #5D625E",
"+ c #6A706A",
"@ c #757E76",
"# c #7D897F",
"$ c #8D9F8F",
"% c #93A995",
"& c #98B299",
"* c #9EC19F",
"= c #9FC8A2",
"- c #9FCFA3",
/* pixels */
"------------------------------------------------------------",
"------------------------------------------------------------",
"------------------------------------------------------------",
"------------------------------------------------------------",
"------------------------------------------------------------",
"------------------------------------------------------------",
"------------------------------------------------------------",
"------------------------------------------------------------",
"------------------------------------------------------------",
"------------------------------------------------------------",
"------------------------------------------------------------",
"------------------------------------------------------------",
"------------------------------------------------------------",
"------------------------------------------------------------",
"------------------------------------------------------------",
"------------------------------------------------------------",
"------------------------------------------------------------",
"------------------------------------------------------------",
"------------------------------------------------------------",
"------------------------------------------------------------",
"----------------------------------=**=----------------------",
"---------------------#XXO---+XX+--X  O----------------------",
"---------------------@  X---O  O@    O----------------------",
"---------------------@   XXX   O@    O----------------------",
"---------------------@         O@    O----------------------",
"---------------------@         O*&.  O----------------------",
"---------------------@  X***o  O$@.  O----------------------",
"---------------------@  X---O  O@    O----------------------",
"---------------------@         O@    O----------------------",
"---------------------@         O$@.  O----------------------",
"---------------------#XXXXXXXXX+--X  O----------------------",
"----------------------=***********+OO#----------------------",
"----------------------X              O----------------------",
"----------------------X              O----------------------",
"----------------------X              O----------------------",
"----------------------------------   O----------------------",
"----------------------------------   O----------------------",
"----------------------------------   O----------------------",
"----------------------------------%$$&----------------------",
"------------------------------------------------------------",
"------------------------------------------------------------",
"------------------------------------------------------------",
"------------------------------------------------------------",
"------------------------------------------------------------",
"------------------------------------------------------------",
"------------------------------------------------------------",
"------------------------------------------------------------",
"------------------------------------------------------------",
"------------------------------------------------------------",
"------------------------------------------------------------",
"------------------------------------------------------------",
"------------------------------------------------------------",
"------------------------------------------------------------",
"------------------------------------------------------------",
"------------------------------------------------------------",
"------------------------------------------------------------",
"------------------------------------------------------------",
"------------------------------------------------------------",
"------------------------------------------------------------",
"------------------------------------------------------------"
};
