/* XPM */
static char *f94d9eafa7e043b4b93aadadae75f459dflriinj7gJebi8d[] = {
/* columns rows colors chars-per-pixel */
"60 60 16 1 ",
"  c black",
". c #242423",
"X c #414341",
"o c #4F5250",
"O c #5B615D",
"+ c #676F6A",
"@ c #707C74",
"# c #78877D",
"$ c #7D9185",
"% c #839B8C",
"& c #86A490",
"* c #89AB94",
"= c #8AB398",
"- c #87BF9C",
"; c #89B99A",
": c #82C59C",
/* pixels */
"::::::::::::::::::::::::::::::::::::::::::::::::::::::::::::",
"::::::::::::::::::::::::::::::::::::::::::::::::::::::::::::",
"::::::::::::::::::::::::::::::::::::::::::::::::::::::::::::",
"::::::::::::::::::::::::::::::::::::::::::::::::::::::::::::",
"::::::::::::::::::::::::::::::::::::::::::::::::::::::::::::",
"::::::::::::::::::::::::::::::::::::::::::::::::::::::::::::",
"::::::::::::::::::::::::::::::::::::::::::::::::::::::::::::",
"::::::::::::::::::::::::::::::::::::::::::::::::::::::::::::",
"::::::::::::::::::::::::::::::::::::::::::::::::::::::::::::",
"::::::::::::::::::::::::::::::::::::::::::::::::::::::::::::",
"::::::::::::::::::::::::::::::::::::::::::::::::::::::::::::",
"::::::::::::::::::::::::::::::::::::::::::::::::::::::::::::",
"::::::::::::::::::::::::::::::::::::::::::::::::::::::::::::",
"::::::::::::::::::::::::::::::::::::::::::::::::::::::::::::",
"::::::::::::::::::::::::::::::::::::::::::::::::::::::::::::",
"::::::::::::::::::::::::::::::::::::::::::::::::::::::::::::",
"::::::::::::::::::::::::::::::::::::::::::::::::::::::::::::",
"::::::::::::::::::::::::::::::::::::::::::::::::::::::::::::",
"::::::::::::::::::::::::::::::::::::::::::::::::::::::::::::",
"::::::::::::::::::::::::::::::::::::::::::::::::::::::::::::",
"::::::::::::::::::::::::::::::::::;;;-::::::::::::::::::::::",
":::::::::::::::::::::#XXXXXXXXXX::   @::::::::::::::::::::::",
":::::::::::::::::::::@          ::   @::::::::::::::::::::::",
":::::::::::::::::::::@         .::   @::::::::::::::::::::::",
"::::::::::::::::::::::::::::o  o::   @::::::::::::::::::::::",
"::::::::::::::::::::::::::*O   #::   @::::::::::::::::::::::",
":::::::::::::::::::::*#@O.    X-::   @::::::::::::::::::::::",
":::::::::::::::::::::@       o-:::   @::::::::::::::::::::::",
":::::::::::::::::::::@    .+&:::::   @::::::::::::::::::::::",
":::::::::::::::::::::*@#$&;;;;;;;;@@@&::::::::::::::::::::::",
"::::::::::::::::::::::X              @::::::::::::::::::::::",
"::::::::::::::::::::::X              @::::::::::::::::::::::",
"::::::::::::::::::::::%$$$$$$$$$$$   @::::::::::::::::::::::",
"::::::::::::::::::::::X              @::::::::::::::::::::::",
"::::::::::::::::::::::X              @::::::::::::::::::::::",
"::::::::::::::::::::::X  X$$$$$$$$$$$&::::::::::::::::::::::",
"::::::::::::::::::::::X              O::::::::::::::::::::::",
"::::::::::::::::::::::X              O::::::::::::::::::::::",
"::::::::::::::::::::::=**************=::::::::::::::::::::::",
"::::::::::::::::::::::::::::::::::::::::::::::::::::::::::::",
"::::::::::::::::::::::::::::::::::::::::::::::::::::::::::::",
"::::::::::::::::::::::::::::::::::::::::::::::::::::::::::::",
"::::::::::::::::::::::::::::::::::::::::::::::::::::::::::::",
"::::::::::::::::::::::::::::::::::::::::::::::::::::::::::::",
"::::::::::::::::::::::::::::::::::::::::::::::::::::::::::::",
"::::::::::::::::::::::::::::::::::::::::::::::::::::::::::::",
"::::::::::::::::::::::::::::::::::::::::::::::::::::::::::::",
"::::::::::::::::::::::::::::::::::::::::::::::::::::::::::::",
"::::::::::::::::::::::::::::::::::::::::::::::::::::::::::::",
"::::::::::::::::::::::::::::::::::::::::::::::::::::::::::::",
"::::::::::::::::::::::::::::::::::::::::::::::::::::::::::::",
"::::::::::::::::::::::::::::::::::::::::::::::::::::::::::::",
"::::::::::::::::::::::::::::::::::::::::::::::::::::::::::::",
"::::::::::::::::::::::::::::::::::::::::::::::::::::::::::::",
"::::::::::::::::::::::::::::::::::::::::::::::::::::::::::::",
"::::::::::::::::::::::::::::::::::::::::::::::::::::::::::::",
"::::::::::::::::::::::::::::::::::::::::::::::::::::::::::::",
"::::::::::::::::::::::::::::::::::::::::::::::::::::::::::::",
"::::::::::::::::::::::::::::::::::::::::::::::::::::::::::::",
"::::::::::::::::::::::::::::::::::::::::::::::::::::::::::::"
};
