/* XPM */
static char *_2eb50e90dc4497ae0fd2529e4b953fecBhzAZIKs8AiJYHo[] = {
/* columns rows colors chars-per-pixel */
"60 60 17 1 ",
"  c black",
". c #242423",
"X c #45433F",
"o c #56544D",
"O c #676359",
"+ c #777163",
"@ c #867F6B",
"# c #938B72",
"$ c #A29677",
"% c #B0A179",
"& c #BEAC7B",
"* c #CBB479",
"= c #D8BD78",
"- c #F2CE6F",
"; c #FED567",
": c #FED568",
"> c #E5C673",
/* pixels */
";;;;;;;;;;;;;;;;;;;;;;;;;;;;;;;;;;;;;;;;;;;;;;;;;;;;;;;;;;;:",
";;;;;;;;;;;;;;;;;;;;;;;;;;;;;;;;;;;;;;;;;;;;;;;;;;;;;;;;;;;:",
";;;;;;;;;;;;;;;;;;;;;;;;;;;;;;;;;;;;;;;;;;;;;;;;;;;;;;;;;;;:",
";;;;;;;;;;;;;;;;;;;;;;;;;;;;;;;;;;;;;;;;;;;;;;;;;;;;;;;;;;;:",
";;;;;;;;;;;;;;;;;;;;;;;;;;;;;;;;;;;;;;;;;;;;;;;;;;;;;;;;;;;:",
";;;;;;;;;;;;;;;;;;;;;;;;;;;;;;;;;;;;;;;;;;;;;;;;;;;;;;;;;;;:",
";;;;;;;;;;;;;;;;;;;;;;;;;;;;;;;;;;;;;;;;;;;;;;;;;;;;;;;;;;;:",
";;;;;;;;;;;;;;;;;;;;;;;;;;;;;;;;;;;;;;;;;;;;;;;;;;;;;;;;;;;:",
";;;;;;;;;;;;;;;;;;;;;;;;;;;;;;;;;;;;;;;;;;;;;;;;;;;;;;;;;;;:",
";;;;;;;;;;;;;;;;;;;;;;;;;;;;;;;;;;;;;;;;;;;;;;;;;;;;;;;;;;;:",
";;;;;;;;;;;;;;;;;;;;;;;;;;;;;;;;;;;;;;;;;;;;;;;;;;;;;;;;;;;:",
";;;;;;;;;;;;;;;;;;;;;;;;;;;;;;;;;;;;;;;;;;;;;;;;;;;;;;;;;;;:",
";;;;;;;;;;;;;;;;;;;;;;;;;;;;;;;;;;;;;;;;;;;;;;;;;;;;;;;;;;;:",
";;;;;;;;;;;;;;;;;;;;;;;;;;;;;;;;;;;;;;;;;;;;;;;;;;;;;;;;;;;:",
";;;;;;;;;;;;;;;;;;;;;;;;;;;;;;;;;;;;;;;;;;;;;;;;;;;;;;;;;;;:",
";;;;;;;;;;;;;;;;;;;;;;;;;;;;;;;;;;;;;;;;;;;;;;;;;;;;;;;;;;;:",
";;;;;;;;;;;;;;;;;;;;;;;;;;;;;;;;;;;;;;;;;;;;;;;;;;;;;;;;;;;:",
";;;;;;;;;;;;;;;;;;;;;;;;;;;;;;;;;;;;;;;;;;;;;;;;;;;;;;;;;;;:",
";;;;;;;;;;;;;;;;;;;;;;;;;;;;;;;;;;;;;;;;;;;;;;;;;;;;;;;;;;;:",
";;;;;;;;;;;;;;;;;;;;;;;;;;*$+++@%>;;;;;;;;;;;;;;;;;;;;;;;;;:",
";;;;;;;;;;;;;;;;;;;;;;;;$X        o*;;;;;;;;;;;;;;;;;;;;;;;:",
";;;;;;;;;;;;;;;;;;;;;;=X            @;;;;;;;;;;;;;;;;;;;;;;:",
";;;;;;;;;;;;;;;;;;;;;=.              O;;;;;;;;;;;;;;;;;;;;;:",
";;;;;;;;;;;;;;;;;;;;>.     .O@@O      #;;;;;;;;;;;;;;;;;;;;:",
";;;;;;;;;;;;;;;;;;;;O     #-;;;;>@     >;;;;;;;;;;;;;;;;;;;:",
";;;;;;;;;;;;;;;;;;;=     *;;;;;;;;$    @;;;;;;;;;;;;;;;;;;;:",
";;;;;;;;;;;;;;;;;;;@    $;;;;;;;;;;X   X;;;;;;;;;;;;;;;;;;;:",
";;;;;;;;;;;;;;;;;;;X   .;;;;;;;;;;;->>>>;;;;;;;;;;;;;;;;;;;:",
";;;;;;;;;;;;;;;;;;>    +;;;;;;;;;;;;;;;;;;;;;;;;;;;;;;;;;;;:",
";;;;;;;;;;;;;;;;;;>    #;;;;;;;;;;;;;;;;;;;;;;;;;;;;;;;;;;;:",
";;;;;;;;;;;;;;;;;;=    #;;;;;;;;;;;;;;;;;;;;;;;;;;;;;;;;;;;:",
";;;;;;;;;;;;;;;;;;>    +;;;;;;;;;;;;;;;;;;;;;;;;;;;;;;;;;;;:",
";;;;;;;;;;;;;;;;;;;X   .-;;;;;;;;;;>&&&&-;;;;;;;;;;;;;;;;;;:",
";;;;;;;;;;;;;;;;;;;@    %;;;;;;;;;;O    -;;;;;;;;;;;;;;;;;;:",
";;;;;;;;;;;;;;;;;;;*    .=;;;;;;;;%    O;;;;;;;;;;;;;;;;;;;:",
";;;;;;;;;;;;;;;;;;;;O    .%;;;;;-@     *;;;;;;;;;;;;;;;;;;;:",
";;;;;;;;;;;;;;;;;;;;>.     .@##+.     +;;;;;;;;;;;;;;;;;;;;:",
";;;;;;;;;;;;;;;;;;;;;*               O;;;;;;;;;;;;;;;;;;;;;:",
";;;;;;;;;;;;;;;;;;;;;;*X            +;;;;;;;;;;;;;;;;;;;;;;:",
";;;;;;;;;;;;;;;;;;;;;;;-#.        o*;;;;;;;;;;;;;;;;;;;;;;;:",
";;;;;;;;;;;;;;;;;;;;;;;;;-&@Ooo+$=;;;;;;;;;;;;;;;;;;;;;;;;;:",
";;;;;;;;;;;;;;;;;;;;;;;;;;;;;;;;;;;;;;;;;;;;;;;;;;;;;;;;;;;:",
";;;;;;;;;;;;;;;;;;;;;;;;;;;;;;;;;;;;;;;;;;;;;;;;;;;;;;;;;;;:",
";;;;;;;;;;;;;;;;;;;;;;;;;;;;;;;;;;;;;;;;;;;;;;;;;;;;;;;;;;;:",
";;;;;;;;;;;;;;;;;;;;;;;;;;;;;;;;;;;;;;;;;;;;;;;;;;;;;;;;;;;:",
";;;;;;;;;;;;;;;;;;;;;;;;;;;;;;;;;;;;;;;;;;;;;;;;;;;;;;;;;;;:",
";;;;;;;;;;;;;;;;;;;;;;;;;;;;;;;;;;;;;;;;;;;;;;;;;;;;;;;;;;;:",
";;;;;;;;;;;;;;;;;;;;;;;;;;;;;;;;;;;;;;;;;;;;;;;;;;;;;;;;;;;:",
";;;;;;;;;;;;;;;;;;;;;;;;;;;;;;;;;;;;;;;;;;;;;;;;;;;;;;;;;;;:",
";;;;;;;;;;;;;;;;;;;;;;;;;;;;;;;;;;;;;;;;;;;;;;;;;;;;;;;;;;;:",
";;;;;;;;;;;;;;;;;;;;;;;;;;;;;;;;;;;;;;;;;;;;;;;;;;;;;;;;;;;:",
";;;;;;;;;;;;;;;;;;;;;;;;;;;;;;;;;;;;;;;;;;;;;;;;;;;;;;;;;;;:",
";;;;;;;;;;;;;;;;;;;;;;;;;;;;;;;;;;;;;;;;;;;;;;;;;;;;;;;;;;;:",
";;;;;;;;;;;;;;;;;;;;;;;;;;;;;;;;;;;;;;;;;;;;;;;;;;;;;;;;;;;:",
";;;;;;;;;;;;;;;;;;;;;;;;;;;;;;;;;;;;;;;;;;;;;;;;;;;;;;;;;;;:",
";;;;;;;;;;;;;;;;;;;;;;;;;;;;;;;;;;;;;;;;;;;;;;;;;;;;;;;;;;;:",
";;;;;;;;;;;;;;;;;;;;;;;;;;;;;;;;;;;;;;;;;;;;;;;;;;;;;;;;;;;:",
";;;;;;;;;;;;;;;;;;;;;;;;;;;;;;;;;;;;;;;;;;;;;;;;;;;;;;;;;;;:",
";;;;;;;;;;;;;;;;;;;;;;;;;;;;;;;;;;;;;;;;;;;;;;;;;;;;;;;;;;;:",
";;;;;;;;;;;;;;;;;;;;;;;;;;;;;;;;;;;;;;;;;;;;;;;;;;;;;;;;;;;:"
};
