/* XPM */
static char *e10f84b7b0a746f9e86951fdc45f54e9dtRZSGssHMrFwKcM[] = {
/* columns rows colors chars-per-pixel */
"60 60 12 1 ",
"  c black",
". c #424243",
"X c #505153",
"o c #5C5F63",
"O c #71767F",
"+ c #7A7F8C",
"@ c #808898",
"# c #8790A3",
"$ c #8C96AE",
"% c #8F9BB7",
"& c #92A4C9",
"* c #91A9D8",
/* pixels */
"************************************************************",
"************************************************************",
"************************************************************",
"************************************************************",
"************************************************************",
"************************************************************",
"************************************************************",
"************************************************************",
"************************************************************",
"************************************************************",
"************************************************************",
"************************************************************",
"************************************************************",
"************************************************************",
"************************************************************",
"************************************************************",
"************************************************************",
"************************************************************",
"************************************************************",
"************************************************************",
"************************************************************",
"***********************#OOOOOOOOOOO#************************",
"***********************O           O************************",
"***********************O           O************************",
"***********************O   Xooooooo@************************",
"***********************O   %********************************",
"***********************O   %********************************",
"***********************O   $&&&&&&&*************************",
"***********************O           *************************",
"***********************O           *************************",
"***********************O           *************************",
"***********************O   @%%%%%%%*************************",
"***********************O   %********************************",
"***********************O   %********************************",
"***********************O   O@@@@@@@#************************",
"***********************O           .************************",
"***********************O           .************************",
"***********************+...........o************************",
"************************************************************",
"************************************************************",
"************************************************************",
"************************************************************",
"************************************************************",
"************************************************************",
"************************************************************",
"************************************************************",
"************************************************************",
"************************************************************",
"************************************************************",
"************************************************************",
"************************************************************",
"************************************************************",
"************************************************************",
"************************************************************",
"************************************************************",
"************************************************************",
"************************************************************",
"************************************************************",
"************************************************************",
"************************************************************"
};
