/* XPM */
static char *_85379cb19fc4649c36462a2fe661b78gqG70tO8c74e1iNP[] = {
/* columns rows colors chars-per-pixel */
"60 60 15 1 ",
"  c black",
". c #242423",
"X c #414143",
"o c #4E5053",
"O c #5A5D62",
"+ c #6C727E",
"@ c #737B8A",
"# c #778295",
"$ c #7B88A0",
"% c #7D8DA9",
"& c #7E91B2",
"* c #7E94BA",
"= c #7C96C2",
"- c #7497D1",
"; c #7398D0",
/* pixels */
"-;;;;;;;;;;;;;;;;;;;;;;;;;;;;;;;;;;;;;;;;;;;;;;;;;;;;;;;;;;;",
"-;;;;;;;;;;;;;;;;;;;;;;;;;;;;;;;;;;;;;;;;;;;;;;;;;;;;;;;;;;;",
"-;;;;;;;;;;;;;;;;;;;;;;;;;;;;;;;;;;;;;;;;;;;;;;;;;;;;;;;;;;;",
"-;;;;;;;;;;;;;;;;;;;;;;;;;;;;;;;;;;;;;;;;;;;;;;;;;;;;;;;;;;;",
"-;;;;;;;;;;;;;;;;;;;;;;;;;;;;;;;;;;;;;;;;;;;;;;;;;;;;;;;;;;;",
"-;;;;;;;;;;;;;;;;;;;;;;;;;;;;;;;;;;;;;;;;;;;;;;;;;;;;;;;;;;;",
"-;;;;;;;;;;;;;;;;;;;;;;;;;;;;;;;;;;;;;;;;;;;;;;;;;;;;;;;;;;;",
"-;;;;;;;;;;;;;;;;;;;;;;;;;;;;;;;;;;;;;;;;;;;;;;;;;;;;;;;;;;;",
"-;;;;;;;;;;;;;;;;;;;;;;;;;;;;;;;;;;;;;;;;;;;;;;;;;;;;;;;;;;;",
"-;;;;;;;;;;;;;;;;;;;;;;;;;;;;;;;;;;;;;;;;;;;;;;;;;;;;;;;;;;;",
"-;;;;;;;;;;;;;;;;;;;;;;;;;;;;;;;;;;;;;;;;;;;;;;;;;;;;;;;;;;;",
"-;;;;;;;;;;;;;;;;;;;;;;;;;;;;;;;;;;;;;;;;;;;;;;;;;;;;;;;;;;;",
"-;;;;;;;;;;;;;;;;;;;;;;;;;;;;;;;;;;;;;;;;;;;;;;;;;;;;;;;;;;;",
"-;;;;;;;;;;;;;;;;;;;;;;;;;;;;;;;;;;;;;;;;;;;;;;;;;;;;;;;;;;;",
"-;;;;;;;;;;;;;;;;;;;;;;;;;;;;;;;;;;;;;;;;;;;;;;;;;;;;;;;;;;;",
"-;;;;;;;;;;;;;;;;;;;;;;;;;;;;;;;;;;;;;;;;;;;;;;;;;;;;;;;;;;;",
"-;;;;;;;;;;;;;;;;;;;;;;;;;;;;;;;;;;;;;;;;;;;;;;;;;;;;;;;;;;;",
"-;;;;;;;;;;;;;;;;;;;;;;;;;;;;;;;;;;;;;;;;;;;;;;;;;;;;;;;;;;;",
"-;;;;;;;;;;;;;;;;;;;;;;;;;;;;;;;;;;;;;;;;;;;;;;;;;;;;;;;;;;;",
"-;;;;;;;;;;;;;;;;;;;;;;;;;;;;;;;;;;;;;;;;;;;;;;;;;;;;;;;;;;;",
"-;;;;;;;;;;;;;;;;;;;;;;;;;;;;;;;;;;;;;;;;;;;;;;;;;;;;;;;;;;;",
"-;;;;;;;;;;;;;;;;;;;;;;;$+++++++#*;;;;;;;;;;;;;;;;;;;;;;;;;;",
"-;;;;;;;;;;;;;;;;;;;;;;;+         o*;;;;;;;;;;;;;;;;;;;;;;;;",
"-;;;;;;;;;;;;;;;;;;;;;;;+          .*;;;;;;;;;;;;;;;;;;;;;;;",
"-;;;;;;;;;;;;;;;;;;;;;;;+   .XX.    o;;;;;;;;;;;;;;;;;;;;;;;",
"-;;;;;;;;;;;;;;;;;;;;;;;+   &;;;&.   &;;;;;;;;;;;;;;;;;;;;;;",
"-;;;;;;;;;;;;;;;;;;;;;;;+   &;;;;@   #;;;;;;;;;;;;;;;;;;;;;;",
"-;;;;;;;;;;;;;;;;;;;;;;;+   &;;;;$   #;;;;;;;;;;;;;;;;;;;;;;",
"-;;;;;;;;;;;;;;;;;;;;;;;+   &;;;;@   #;;;;;;;;;;;;;;;;;;;;;;",
"-;;;;;;;;;;;;;;;;;;;;;;;+   &;;;%.   &;;;;;;;;;;;;;;;;;;;;;;",
"-;;;;;;;;;;;;;;;;;;;;;;;+   .XX     o;;;;;;;;;;;;;;;;;;;;;;;",
"-;;;;;;;;;;;;;;;;;;;;;;;+          .=;;;;;;;;;;;;;;;;;;;;;;;",
"-;;;;;;;;;;;;;;;;;;;;;;;+         O=;;;;;;;;;;;;;;;;;;;;;;;;",
"-;;;;;;;;;;;;;;;;;;;;;;;+   O++@$=;;;;;;;;;;;;;;;;;;;;;;;;;;",
"-;;;;;;;;;;;;;;;;;;;;;;;+   &;;;;;;;;;;;;;;;;;;;;;;;;;;;;;;;",
"-;;;;;;;;;;;;;;;;;;;;;;;+   &;;;;;;;;;;;;;;;;;;;;;;;;;;;;;;;",
"-;;;;;;;;;;;;;;;;;;;;;;;+   &;;;;;;;;;;;;;;;;;;;;;;;;;;;;;;;",
"-;;;;;;;;;;;;;;;;;;;;;;;@XXX*;;;;;;;;;;;;;;;;;;;;;;;;;;;;;;;",
"-;;;;;;;;;;;;;;;;;;;;;;;;;;;;;;;;;;;;;;;;;;;;;;;;;;;;;;;;;;;",
"-;;;;;;;;;;;;;;;;;;;;;;;;;;;;;;;;;;;;;;;;;;;;;;;;;;;;;;;;;;;",
"-;;;;;;;;;;;;;;;;;;;;;;;;;;;;;;;;;;;;;;;;;;;;;;;;;;;;;;;;;;;",
"-;;;;;;;;;;;;;;;;;;;;;;;;;;;;;;;;;;;;;;;;;;;;;;;;;;;;;;;;;;;",
"-;;;;;;;;;;;;;;;;;;;;;;;;;;;;;;;;;;;;;;;;;;;;;;;;;;;;;;;;;;;",
"-;;;;;;;;;;;;;;;;;;;;;;;;;;;;;;;;;;;;;;;;;;;;;;;;;;;;;;;;;;;",
"-;;;;;;;;;;;;;;;;;;;;;;;;;;;;;;;;;;;;;;;;;;;;;;;;;;;;;;;;;;;",
"-;;;;;;;;;;;;;;;;;;;;;;;;;;;;;;;;;;;;;;;;;;;;;;;;;;;;;;;;;;;",
"-;;;;;;;;;;;;;;;;;;;;;;;;;;;;;;;;;;;;;;;;;;;;;;;;;;;;;;;;;;;",
"-;;;;;;;;;;;;;;;;;;;;;;;;;;;;;;;;;;;;;;;;;;;;;;;;;;;;;;;;;;;",
"-;;;;;;;;;;;;;;;;;;;;;;;;;;;;;;;;;;;;;;;;;;;;;;;;;;;;;;;;;;;",
"-;;;;;;;;;;;;;;;;;;;;;;;;;;;;;;;;;;;;;;;;;;;;;;;;;;;;;;;;;;;",
"-;;;;;;;;;;;;;;;;;;;;;;;;;;;;;;;;;;;;;;;;;;;;;;;;;;;;;;;;;;;",
"-;;;;;;;;;;;;;;;;;;;;;;;;;;;;;;;;;;;;;;;;;;;;;;;;;;;;;;;;;;;",
"-;;;;;;;;;;;;;;;;;;;;;;;;;;;;;;;;;;;;;;;;;;;;;;;;;;;;;;;;;;;",
"-;;;;;;;;;;;;;;;;;;;;;;;;;;;;;;;;;;;;;;;;;;;;;;;;;;;;;;;;;;;",
"-;;;;;;;;;;;;;;;;;;;;;;;;;;;;;;;;;;;;;;;;;;;;;;;;;;;;;;;;;;;",
"-;;;;;;;;;;;;;;;;;;;;;;;;;;;;;;;;;;;;;;;;;;;;;;;;;;;;;;;;;;;",
"-;;;;;;;;;;;;;;;;;;;;;;;;;;;;;;;;;;;;;;;;;;;;;;;;;;;;;;;;;;;",
"-;;;;;;;;;;;;;;;;;;;;;;;;;;;;;;;;;;;;;;;;;;;;;;;;;;;;;;;;;;;",
"-;;;;;;;;;;;;;;;;;;;;;;;;;;;;;;;;;;;;;;;;;;;;;;;;;;;;;;;;;;;",
"-;;;;;;;;;;;;;;;;;;;;;;;;;;;;;;;;;;;;;;;;;;;;;;;;;;;;;;;;;;;"
};
