/* XPM */
static char *_993cbd557404749df065c11022d0e2a7at9EBcpzujNxLYt[] = {
/* columns rows colors chars-per-pixel */
"60 60 209 2 ",
"   c None",
".  c #262726",
"X  c #272829",
"o  c #2D2D2B",
"O  c #262728",
"+  c #302C2A",
"@  c #2D312F",
"#  c #33322E",
"$  c #39352E",
"%  c #2A3632",
"&  c #293937",
"*  c #293C39",
"=  c #263B38",
"-  c #3A3730",
";  c #383A37",
":  c #5B381E",
">  c #5A371C",
",  c #443E32",
"<  c #523621",
"1  c #6B3B18",
"2  c #1F453F",
"3  c #21423C",
"4  c #3A463B",
"5  c #73421B",
"6  c #454336",
"7  c #4A4638",
"8  c #594F39",
"9  c #544B39",
"0  c #55533E",
"q  c #5D523A",
"w  c #6D5D3F",
"e  c #674C37",
"r  c #194E46",
"t  c #1E4B47",
"y  c #16534A",
"u  c #1E5348",
"i  c #1A5754",
"p  c #0F5C52",
"a  c #264A48",
"s  c #245856",
"d  c #2D5C55",
"f  c #08675B",
"g  c #056B5E",
"h  c #09685B",
"j  c #0A6357",
"k  c #17615F",
"l  c #18675D",
"z  c #036F61",
"x  c #086E63",
"c  c #146A68",
"v  c #027062",
"b  c #05776A",
"n  c #1D7862",
"m  c #177368",
"M  c #087873",
"N  c #1F7470",
"B  c #1D7B77",
"V  c #216B67",
"C  c #226865",
"Z  c #20746B",
"A  c #207470",
"S  c #454544",
"D  c #4E4D41",
"F  c #5B5745",
"G  c #515855",
"H  c #675F48",
"J  c #6A6849",
"K  c #676547",
"L  c #7A6B49",
"P  c #7C7951",
"I  c #6A6B51",
"U  c #507B6F",
"Y  c #747472",
"T  c #686867",
"R  c #587455",
"E  c #843F0D",
"W  c #86410F",
"Q  c #89430F",
"!  c #874210",
"~  c #884310",
"^  c #94541C",
"/  c #A96A2B",
"(  c #967D4C",
")  c #997D4B",
"_  c #817E54",
"`  c #A46E44",
"'  c #028179",
"]  c #318474",
"[  c #6B8D5F",
"{  c #78AB74",
"}  c #7CA56F",
"|  c #6A8A67",
" . c #C3863D",
".. c #9C814D",
"X. c #8D8A5A",
"o. c #8A8658",
"O. c #958857",
"+. c #9A965F",
"@. c #A4864F",
"#. c #A78B53",
"$. c #BB9B59",
"%. c #AD9256",
"&. c #9B9760",
"*. c #8D9166",
"=. c #A19D63",
"-. c #84AC7B",
";. c #93AE75",
":. c #ADA465",
">. c #B1AC6A",
",. c #B6B571",
"<. c #CB964B",
"1. c #D99F4E",
"2. c #DAA04E",
"3. c #C7A15A",
"4. c #D4AB5E",
"5. c #D9A553",
"6. c #E9B35B",
"7. c #D3AC60",
"8. c #CCB869",
"9. c #DDB262",
"0. c #C8BE72",
"q. c #CAAF63",
"w. c #E9BA64",
"e. c #E6B863",
"r. c #F1BB60",
"t. c #CFC979",
"y. c #CDC073",
"u. c #D6D07C",
"i. c #DAD27C",
"p. c #DAC875",
"a. c #E3C36C",
"s. c #F2C46A",
"d. c #FFCC6C",
"f. c #F3C468",
"g. c #FFD06E",
"h. c #E1C774",
"j. c #F6CE71",
"k. c #E1D279",
"l. c #E4D97F",
"z. c #FAD373",
"x. c #F4D778",
"c. c #F5DA7A",
"v. c #F8D979",
"b. c #F5E07F",
"n. c #068684",
"m. c #028E8B",
"M. c #048886",
"N. c #00918F",
"B. c #1D998C",
"V. c #009391",
"C. c #069B98",
"Z. c #179C98",
"A. c #178D87",
"S. c #1AA19B",
"D. c #2EA39E",
"F. c #09A6A2",
"G. c #13A9A3",
"H. c #13AEA8",
"J. c #0FB4AE",
"K. c #0EBAB4",
"L. c #0EB7B1",
"P. c #11BAB4",
"I. c #10B7B1",
"U. c #12B4AE",
"Y. c #2CBCAC",
"T. c #499C83",
"R. c #65A982",
"E. c #6CBAB8",
"W. c #48B1B0",
"Q. c #2CC2B9",
"!. c #7FD09E",
"~. c #72CEA1",
"^. c #44C6C1",
"/. c #79C9C7",
"(. c #888887",
"). c #95938D",
"_. c #979797",
"`. c #999896",
"'. c #8A9291",
"]. c #B0AFAC",
"[. c #ACA18D",
"{. c #8DD39A",
"}. c #80D09D",
"|. c #80C896",
" X c #D5D98F",
".X c #E4DC82",
"XX c #EBDE80",
"oX c #EDE687",
"OX c #EEE788",
"+X c #EFE888",
"@X c #EEE887",
"#X c #F1E585",
"$X c #F1E989",
"%X c #F2E887",
"&X c #C0C0BF",
"*X c #E5E897",
"=X c #8BD0CF",
"-X c #BDCDCC",
";X c #D6D5D4",
":X c #C8C8C6",
">X c #E1DEDA",
",X c #D0E1E1",
"<X c #E9E9E9",
"1X c #E6E6E5",
"2X c #E4F7F6",
"3X c #FFFFFF",
"4X c #FDF9F6",
"5X c #FFF8E4",
"6X c #EBE1CD",
/* pixels */
"                                                                      o # o o o                                         ",
"                                                                      o o o o #                                         ",
"                                                                      a a * o o                                         ",
"                                                                  o * S.U.Z o o                                         ",
"                                                                  o * G.P.A o o                                         ",
"                                                                a s C H.P.Z o o                                         ",
"                                                            o o N P.I.P.P.A + # o o o o o                 o o o o       ",
"                                                            o o N K.K.K.K.N + + o o # + o                 + o o +       ",
"                                                            o o U ~.~.~.~.T.c V V V V V C *             s V V V V s     ",
"                                                            o o X.$X#X#X#X}.K.L.P.P.P.P.G.3 o @ o # o + N P.P.P.P.N o @ ",
"                                                            o X X.$X+X$X%X!.J.L.P.P.P.P.G.* X @ + o o + Z P.P.P.P.A o o ",
"                                                        o 7 X.&.X._ _ _ o.-.{.{.{.{.{.{.}.] ] m c c B B Z.P.J.F.F.c + o ",
"                                                      o o 7 u.$XX.X o X X X.%X%X%X%X%X#X XQ.K.F.V.C.L.P.P.P.J.V.V.k o o ",
"                                                      # o 7 u.$XX.o # # o X.$XoXoXoXoXoX XY.K.F.V.V.U.P.P.P.J.C.V.k o # ",
"                                    o o % o       o o P >.,.oXoXt.>.>.>.>.t.oXoXoXoX:.K K d s | ,.;.S.C.C.C.F.V.V.i # o ",
"                                  # o o o o o     o o X.$X+XOXoXOX$X$X$X$X$XoXoXoXoXX.O X o X ( g.h.B.C.N.V.N.V.V.c o o ",
"                                  % % ; ; ; ;     o X o..X.X.X.XoXoXoXoXoXoXoXoXoX@XX.$ - - $ ..d.a.B.V.V.V.V.m.V.i o o ",
"                              o + V Z.D.-X;X(.o o o o 6 F F 0 0 :.+XoXoXoXoXoXoXoXoXh.4.4.4.4.w.d.h.B.V.V.V.M.a a 3     ",
"                              o + A K.Q.2X3X`.X o o o X X X O O X.+XOXoXoXoXOXoXoXoXc.g.d.d.d.d.d.h.B.V.V.V.n.& +       ",
"                              * & A.Q.^.,X<X)., 7 7 7 6 7 6 6 4 X.u.u.u.t..XoXoXoXb.v.d.d.d.d.j.a.0.B.V.V.V.n.* o o     ",
"                          o 4 Z.G.=X2X,XG S *.i.u.u.u.u.u.u.u.i.X.6 6 6 6 #.z.d.d.g.d.d.d.d.d.;.B.B.V.V.V.V.n.* o o     ",
"                        o o * H.K.=X3X1XS X X.$XOXOXOXOX%XOXOX$XX.O X o O ( d.d.d.d.d.d.d.d.g.R.V.V.V.V.V.V.n.* o o     ",
"                        o o * A.Z.E.;X:XI D =.OXoXoXoXoXoXoXoX+X&.0 F D 0 ( 4.4.4.4.4.4.4.y.y.{ V.V.V.V.V.V.n.* o #     ",
"                        o o # % = ; ; D t..XXXOXoXoXOXoXoXoXOXoXoX.X.X.X.XX.- - - - - $ 4 n.C.m.V.V.V.V.V.V.n.* o o     ",
"                          o X o + X . 4  X+XoXOXoXoXoXoXOXoXoXOXoXoXOXOXOXX.o o X X X X & m.V.V.V.V.V.V.V.V.n.& o #     ",
"                        F J J K J K K P i.+XoXoXoXoXoXoXoXoXoXoXoXoXoXc.c.X.X - T Y G t i c N n.V.V.V.V.n.M c % o o     ",
"                    o o X.oXoXoXoXoXoXoXoXoXoXoXoXoXoXoXoXoXoXoXOXoXOXd.d.) X S <X3X/.m.n.& o k V.V.V.V.c o @ o o o     ",
"                    o o X.@XoXoXoXoXoXoXoXoXoXoXoXoXoXOXoXoXOXoXOXOXoXd.z.) O S <X3X=XV.M.% + k V.V.V.V.i o o o # o     ",
"                  6 P P ,.oXoXoXoXoXoXoXoXoXoXoXoXoXoXoXOXoXoXoXOXoX.X%.) *.(.(.=X=XW.N.m.k i M V.m.c c s o o o o       ",
"              o o 6 u.+XoXoXoXoXoXoXoXoXoXoXoXoXoXoXoXoXoXoXoXOXOXOXu., + '.3X2XZ.m.N.V.V.V.V.V.V.n.* o                 ",
"                o 6 u.@XoXoXoXoXoXoXoXoXoXoXoXoXoXoXoXoXoXoXoXoXOXOX X, + _.3X2XD.N.V.V.V.V.V.V.V.M.* o                 ",
"      o o o @ o o 6 a.x.b.oXoXoXoXoXoXoXoXoXoXoXoXoXOXoXoXoXOXoXOX#Xp.S o U /.E.C.V.V.V.V.V.V.V.V.n.* o o               ",
"    # o o @ @ @ + , e.d.x.OXOXOXoXoXoXoXoXoXOXoXoXoXOXoXoXoXoXoXoXoXu.6 + i V.V.V.V.V.N.V.V.V.V.V.M.* o o               ",
"    # # @ o @ + # , e.d.x.#XXXOXoXoXoXoXoXoXoXoXoXoXoXoXoXoXoXoXoX%Xu.7 # l V.V.V.V.V.V.V.N.V.V.V.M.* X #               ",
"o o (.].]., + Y &X].L H $.z.z.z.j.b.oXoXoXoXOXoXoXoXoXoXoXoXv.z.v.j.j.3.$.I t y b M n.V.N.M b n.V.n.* o o               ",
"@ o `.3X<XS X _.3X<XS X ( d.d.d.d.x.oXoXoXoXoXoXoXoXoXOXoXoXd.d.d.d.d.d.g...X % f z ' V.m.b z ' V.n.* o o               ",
"o X ).4X;XF + `.3X1XS o ( d.d.d.d.z.oXoXoXoXb.oXoXoX.X.X.Xi.s.f.f.d.d.d.d.) $ ; j g ' N.m.v z ' N.n.% o #               ",
"# o e ` ` 3.4..X*X X6 X ( j.d.d.d.d.g.g.g.z.j.g.a.K 0 F 0 0 8 8 #.d.d.d.d.w.4.$.4 = p b b v v v b x % @ o               ",
"o o : W ^ r.d.x.$X.X7 X ( d.d.d.d.d.d.d.d.d.d.d.9., O o o X X X ) d.d.d.d.d.d.w.7 + r z z z v v z h % @ o               ",
"o o : ! ^ 6.r.j.#Xu.q ; O.a.e.d.d.f.d.d.d.d.f.e.4.F S ; @ # S S ( w.w.d.d.s.a.q.4 @ y v z z z z v f % o o               ",
"# + : Q E ^ ^ <.d.j.i.i.} n Z f.d.d.d.d.d.d.@.6 F ;X<X(.X S :X<X)., q w.g.+.n n h j g z z v z z z f % o o               ",
"o + : Q E E 5  .d.d.#X$X{ z Z a.d.g.d.d.d.d.( . S <X3X_.X S <X3X).. 6 e.g.} g z z v z z z z z z v h % o o               ",
"o o > Q Q Q W  .d.z.#X$X{ z n >.8.8.8.8.4.4.( 0 I 6X5X[.9 K :X;X).0 K 3.4.[ z z z z z z z z z h j p % o                 ",
"@ o > E Q Q W  .d.d.XX$X{ z g n x m x l 4 # X.l..Xj.g.d.f.9.9 $ o.oXt.7 $ u v z z z z v z z z u @ %                     ",
"o o : Q W W E  .d.g.oX@X{ z z z z z z j % o X.$X#Xg.d.d.g.w.6 . o.%Xi.6 o r z z z z z z z z v r + o                     ",
"o @ < 1 5 / / 2.z.x.b.$X{ g z z z z z x % o X.$XXX5.1.1.2.<.L w :.@Xu.6 o r v z v z z z z z v r o o                     ",
"    o + 6 6.d.x.oXoXoX$X{ z z z z z z j % X X.#X.X^ E E Q ^ 6.d.c.@Xu.6 o r v z z z z v z z v u o #                     ",
"    @ o 6 w.g.c.$X$X$X%X{ z z z z z z x % o X.#X.X^ E ~ Q ^ r.d.c.@Xu.6 o u v z z z z z z z v r + o                     ",
"      o 6 ..@.O.&.+.+.&.R y y y y j v f % o X.+Xk.^ W W W ^ r.d.c.OXu.6 @ r z z z z v v g y y 3 @                       ",
"          o o # o o o o o o o o o r v h % X X.$Xl.^ W ~ W ^ r.d.c.OXu.6 o u v z v v g v g % o                           ",
"          o o o o o o # o o o o o u v h % o X.$Xk.^ W ~ W ^ r.d.c.@Xu.6 o r v z g g z z h % o o                         ",
"                                  3 t 2 @ o X.$Xi.^ W ~ W ^ r.d.c.@Xu.6 o r v g r r t r r @                             ",
"                                    o o o o X.$Xk.^ ~ ~ Q ^ w.d.x.oXu.6 o r v f % + o o o                               ",
"                                    # o @ X X.+Xi.^ ~ ~ ~ ^ r.d.x.oXu.6 o r z f % o o # o                               ",
"                                        @ o 7 J L <.2.2.1.5.x.c.:.J K # o % 2 3                                         ",
"                                        o o o o , w.g.d.d.z.%X$XX.O o o o o o o                                         ",
"                                        o o o o 6 9.f.f.f.f.l..XX.o @ o @ o o #                                         ",
"                                                  8 8 8 8 0 0 0 7                                                       ",
"                                                  o X o o o o o                                                         ",
"                                                  # o o o o o o o                                                       "
};
